<svg xmlns="http://www.w3.org/2000/svg" viewBox="0 0 1000 540" role="img" aria-label="World map outline">
  <rect width="1000" height="540" fill="none"/>
  <g fill="rgba(39,132,101,0.15)" stroke="rgba(31,107,82,0.34)" stroke-width="1.2" stroke-linejoin="round">
    <path d="M386.784,513.424L386.988,514.579L387.133,515.582L382.981,515.278L378.877,515.41L375.962,514.667L375.897,514.579L374.372,513.914L378.699,514.002L382.936,514.224L383.718,513.288L384.201,512.476ZM195.301,512.169L192.165,512.487L188.278,511.666L185.776,510.832L185.471,510.691L183.166,510.038L182.931,509.142L187.137,509.522L190.244,510.272L193.053,511.112ZM412.041,508.716L414.878,509.758L416.338,511.204L417.014,512.212L417.631,513.389L415.041,514.106L412.26,514.678L409.005,515.203L405.321,515.638L400.798,515.507L397.867,514.765L397.639,513.837L401.333,513.21L402.554,512.44L403.228,511.435L403.658,510.554L404.417,509.709L405.21,508.716L406.199,508.716L408.873,508.193ZM251.96,497.179L254.995,497.592L257.005,497.13L256.709,498.054L255.431,498.722L252.403,498.514L249.471,497.592L249.071,496.715ZM243.013,497.13L247.147,498.156L245.842,498.054L242.951,497.797L239.43,497.076L240.36,496.51ZM294.294,493.015L296.846,493.383L298.89,493.07L301.211,494.585L299.444,494.377L297.013,494.481L294.381,494.377L291.703,494.535L289.193,494.011L287.256,492.911L288.199,492.438L291.122,492.806ZM356.403,490.383L357.265,491.6L357.433,492.652L357.379,493.65L355.139,494.016L353.104,494.54L350.368,494.49L350.809,493.441L348.569,493.808L346.462,494.174L344.436,493.387L343.697,492.284L345.407,491.23L346.665,490.91L349.14,491.015L349.032,489.634L348.628,488.625L347.452,486.424L348.009,485.128L349.762,484.693L351.399,485.72L352.402,486.745L353.931,487.983L355.214,489.156ZM181.681,522.997L181.681,522.997L181.681,522.997L181.833,523.012L180.044,521.971L185.031,522.538L185.034,522.474L185.064,522.325L185.088,522.138L185.119,521.978L185.139,521.897L185.412,521.9L185.692,521.931L190.593,522.682L190.545,521.931L190.638,521.825L194.965,521.498L197.906,521.931L199.382,522.151L203.848,522.745L210.259,523.191L215.928,523.722L223.971,524.11L227.546,523.657L236.02,523.983L241.849,524.488L244.947,524.014L248.477,523.558L246.636,522.745L239.467,522.676L232.598,522.255L229.248,521.536L223.415,521.128L221.661,520.259L220.499,519.442L219.565,518.685L217.455,517.83L213.227,517.249L210.34,516.489L206.161,515.805L210.953,515.935L214.655,515.589L218.685,516.32L220.871,515.679L222.543,514.852L222.819,514.102L220.648,513.164L217.192,512.531L213.319,511.844L209.162,511.706L205.204,511.384L201.111,511.152L198.491,510.268L194.842,509.518L192.042,508.667L187.37,505.87L188.681,506.114L191.553,506.889L194.444,506.647L197.097,506.307L200.194,507.373L202.972,507.131L204.863,506.601L206.42,505.92L207.571,505.088L210.244,504.841L208.978,503.903L207.103,502.959L206.582,502.061L208.632,501.61L210.834,502.459L213.306,501.961L214.855,501.305L217.672,501.253L220.107,501.005L222.152,500.397L223.705,499.836L225.554,499.278L227.313,499.432L228.919,499.634L231.56,499.278L234.746,499.735L237.474,499.687L239.762,499.331L242.757,499.581L246.037,499.836L248.75,499.735L251.742,499.788L254.8,499.836L257.481,499.735L258.814,498.969L260.898,498.563L263.976,499.124L265.974,498.665L267.34,497.743L269.391,498.563L270.939,499.48L273.039,500.345L274.446,499.581L277.731,500.546L280.729,500.852L283.685,501.557L286.39,501.405L288.563,500.952L291.682,501.053L294.706,501.405L297.844,501.857L297.993,500.751L295.978,499.889L294.237,498.969L291.445,498.766L289.491,497.792L288.257,496.813L285.956,494.841L287.826,495.206L290.65,495.363L293.192,495.206L295.937,495.623L298.625,496.402L300.212,497.33L303.098,497.486L305.471,497.125L307.9,496.608L310.2,496.295L312.734,496.916L315.318,496.711L315.691,494.688L318.168,495.883L320.858,496.349L323.257,496.089L325.631,497.125L328.387,497.228L331.069,497.535L333.876,498.103L334.856,497.125L335.068,496.192L337.764,497.228L340.412,496.969L342.84,497.535L344.764,498.408L347.324,498.151L349.109,497.588L350.807,496.916L353.09,496.554L355.817,496.246L358.241,495.883L359.956,495.314L360.735,494.476L360.635,493.328L359.838,492.22L358.657,491.166L357.389,490.103L356.203,489.04L355.188,488.075L354.54,487.005L354.222,485.926L354.726,484.898L355.027,483.76L354.858,482.674L353.872,481.47L353.115,480.371L353.601,479.107L354.422,478.282L355.372,477.23L356.483,476.338L357.891,475.506L358.237,474.276L359.122,473.493L360.21,472.761L362.276,472.596L363.31,471.693L364.663,471.133L366.362,470.792L367.709,470.059L368.636,469.149L370.272,468.811L371.856,469.551L371.375,470.509L369.417,471.357L368.689,471.975L366.868,471.527L365.142,471.809L363.887,472.485L362.563,473.212L361.821,474.054L361.975,475.169L362.546,476.227L363.964,477.172L362.744,477.837L360.785,478.057L359.988,478.997L359.096,479.877L358.275,481.087L358.4,482.127L359.678,483.271L361.206,484.14L363.264,484.791L365.28,485.655L366.636,486.735L367.551,487.756L368.657,488.828L370.049,489.731L371.124,490.74L372.542,493.219L373.607,494.215L374.257,495.26L375.387,496.295L375.77,497.69L375.176,498.766L374.414,499.634L371.896,499.99L371.458,500.9L370.687,501.757L368.181,502.709L365.742,503.11L363.557,503.655L361.187,504.203L360.227,505.236L357.11,505.333L353.563,505.236L350.549,505.431L347.217,505.431L348.506,506.408L351.809,506.843L354.468,507.518L356.285,508.379L354.646,509.138L351.12,508.901L348.799,509.518L349.431,510.502L350.082,511.431L352.958,512.208L354.068,513.07L357.185,513.922L361.487,514.278L365.388,514.894L368.652,515.589L372.632,516.279L377.542,516.617L382.576,517.206L386.231,517.83L390.223,518.524L392.808,519.483L394.334,520.223L395.947,519.521L398.487,518.928L401.208,518.279L404.674,517.748L407.599,517.166L412.193,517.123L416.906,517.415L420.918,517.911L421.621,516.996L423.886,516.364L428.583,516.32L432.076,515.85L435.402,515.372L439.19,515.068L443.215,514.674L445.953,514.102L444.359,513.296L443.288,512.484L443.02,511.614L439.325,511.706L435.509,512.074L431.759,512.074L430.907,511.2L430.551,509.424L431.248,508.901L433.848,508.334L436.963,507.759L439.131,507.035L441.317,506.307L442.847,505.333L445.448,504.892L448.053,504.548L449.367,504.348L452.424,504.25L455.277,503.903L457.646,503.406L459.965,502.808L462.067,502.208L464.737,501.405L466.394,500.546L468.195,499.788L468.667,498.766L466.434,498.151L467.016,497.072L468.28,496.246L470.351,495.726L472.547,495.102L474.57,494.269L476.095,493.219L477.008,491.96L478.468,491.216L480.971,491.376L482.052,492.274L484.549,492.379L484.576,491.376L485.591,490.319L487.861,490.585L488.438,491.591L490.932,491.746L493.627,491.271L496.243,490.955L498.618,491.111L499.524,492.22L501.818,491.326L503.955,490.846L506.338,490.475L508.689,490.103L510.853,489.464L513.221,489.04L515.072,488.45L516.403,487.487L517.939,488.186L520.156,487.811L521.601,489.091L522.716,490.052L525.152,489.519L526.195,488.45L528.419,487.7L531.183,487.862L531.895,488.879L533.751,487.862L536.067,487.543L538.567,487.436L540.803,487.487L543.12,487.811L545.382,487.969L546.228,488.879L547.463,489.68L549.847,489.202L552.346,489.091L554.736,489.091L557.098,489.04L559.283,488.667L561.584,488.343L563.609,487.594L565.706,487.112L567.929,486.842L569.725,486.089L571.245,484.576L572.68,483.652L574.799,484.088L575.399,485.062L577.071,485.711L579.345,485.496L580.59,486.466L581.973,487.167L584.317,486.521L585.403,485.333L587.464,484.847L589.958,483.924L592.171,483.544L594.858,482.998L596.731,482.4L598.706,481.744L600.591,481.144L602.518,481.47L604.788,480.485L606.448,479.716L608.472,479.768L610.49,479.107L611.253,478.115L613.36,477.34L615.351,476.784L617.704,476.338L619.807,476.117L621.675,476.285L623.643,476.563L625.109,477.34L624.857,478.554L626.412,479.492L627.421,480.262L629.878,480.594L631.004,481.361L632.463,482.127L634.457,482.292L636.425,481.744L638.794,480.594L640.563,481.196L642.532,481.527L644.412,481.853L646.424,482.07L648.574,482.07L648.955,484.955L648.526,485.655L647.66,486.898L645.286,487.594L643.127,488.611L642.889,489.68L645.263,489.625L644.439,490.69L642.867,491.696L641.322,492.802L642.476,493.641L644.734,493.903L647.38,493.432L649.088,492.379L650.314,491.376L651.917,490.53L653.657,489.731L654.697,488.773L656.524,487.436L657.995,487.167L660.468,487.056L662.759,486.735L665.161,486.303L666.798,485.226L667.994,484.196L670.028,483.163L672.526,482.452L674.643,481.91L676.352,480.978L677.851,480.485L679.675,480.044L681.683,480.319L683.794,480.044L686.109,479.716L688.4,479.877L690.427,479.107L692.647,477.23L693.002,478.005L693.24,479.33L694.741,479.877L696.683,480.101L698.976,479.768L701.052,479.987L703.056,480.044L704.591,479.768L706.314,479.934L707.579,480.537L709.782,480.153L712.126,480.153L714.375,479.768L716.375,480.153L718.457,479.216L720.196,478.282L722.225,477.503L726.401,475.395L727.555,475.785L728.697,476.563L729.462,477.56L731.029,479.273L733.118,479.33L735.123,479.33L737.71,478.997L740.341,478.611L742.714,477.837L744.829,477.004L747.357,476.894L749.449,476.285L750.751,476.842L751.185,477.727L752.044,478.611L754.524,478.501L755.45,479.216L757.475,479.934L759.972,480.21L762.404,479.987L764.832,479.107L767.007,478.224L769.153,478.005L770.805,478.392L772.835,478.668L775.258,478.224L777.223,478.224L778.911,478.501L780.681,478.778L783.075,478.282L785.813,477.837L788.137,477.727L790.624,477.727L792.878,477.45L795.053,477.23L796.898,475.838L798.023,474.667L798.71,475.448L797.951,476.726L797.617,477.895L797.665,478.83L799.037,479.33L801.659,479.164L804.573,479.107L806.691,478.94L809.545,478.94L811.65,478.888L814.398,478.997L816.613,479.216L817.274,480.101L815.814,481.144L816.386,481.962L818.041,482.617L819.711,483.328L821.985,483.816L824.424,484.248L826.141,484.683L828.506,484.739L830.887,483.816L831.955,484.576L832.641,485.44L833.804,486.089L836.084,486.359L838.178,486.68L837.991,487.756L839.655,488.399L840.145,489.358L841.988,489.786L844.483,489.731L846.553,489.892L849.131,489.837L851.379,490.052L853.265,490.424L854.646,491.061L856.156,491.591L856.619,492.379L855.028,493.432L852.716,494.373L850.229,495.569L848.274,496.505L845.873,497.588L842.649,498.001L840.228,498.921L836.848,499.48L834.569,500.498L831.887,501.457L829.334,502.26L827.056,503.308L825.231,504.25L823.417,505.38L822.111,506.307L821.787,507.277L820.824,508.189L820.408,509.044L823.5,509.375L822.578,510.409L818.48,510.784L814.701,511.292L810.896,511.384L807.063,512.711L804.857,513.791L802.541,514.632L800.016,515.462L801.122,516.191L800.294,517.083L800.255,517.869L800.989,518.563L802.073,519.207L803.329,519.835L805.941,520.451L804.362,521.387L808.38,521.791L808.31,521.931L808.021,522.468L814.36,522.005L816.662,522.574L818.319,522.997L800.884,526.939L778.548,529.123L500,529.123L221.452,529.123L199.116,526.939ZM337.065,440.595L340.825,442.446L344.439,443.211L343.892,444.747L341.679,444.897L340.089,443.819L339.738,445.058L338.041,446.005L335.338,445.659L333.268,444.742L330.604,444.296L326.949,442.581L323.883,440.929L319.259,437.462L321.495,438.113L325.648,440.182L329.249,441.289L329.974,439.873L330.001,437.751L331.788,436.468L333.642,436.836L335.058,438.275ZM356.716,432.042L359.063,433.45L358.642,434.544L355.626,435.478L354.212,434.386L352.56,435.789L350.924,434.386L353.301,432.513L355.601,433.297ZM673.437,427.676L669.579,427.878L670.045,426.201L670.818,424.896L671.188,424.247L672.477,425.244L674.697,425.64L674.586,426.239ZM875.77,399.103L877.683,400.223L879.321,399.778L881.668,399.158L883.098,399.372L881.195,403.221L879.701,404.332L877.968,406.934L877.577,406.049L874.524,408.298L874.101,408.123L872.589,408.02L872.559,405.262L873.374,403.128L873.394,400.305L874.234,398.818ZM946.905,399.515L946.651,400.854L949.315,399.542L949.196,400.908L948.324,402.273L946.4,403.774L943.159,406.153L940.987,407.452L940.89,409.001L938.902,409.039L935.897,410.254L933.768,412.359L930.071,415.598L927.068,417.027L925.165,417.94L922.901,417.87L922.017,416.821L919.441,416.594L919.84,415.419L922.823,413.044L928.143,409.873L930.185,409.268L932.832,408.042L936.132,406.349L938.758,404.677L941.439,402.262L942.938,401.446L944.45,399.636L947.19,398.136ZM960.083,384.007L960.097,387.444L961.384,385.218L962.084,386.107L961.078,388.576L962.58,389.635L964.197,389.9L966.411,388.653L967.52,389.034L965.184,391.924L963.242,393.824L961.295,393.758L960.004,394.744L959.39,396.141L958.633,396.746L956.558,398.499L953.867,400.717L951.05,402.01L951.151,401.161L950.372,400.695L953.538,398.027L953.793,396.235L951.784,394.936L952.561,393.758L955.117,392.623L957.02,390.115L958.098,388.007L958.249,385.82L958.641,385.245L958.113,383.897L957.575,381.004L957.65,378.691L958.772,378.436L959.28,380.252L960.895,381.098ZM959.046,338.188L957.769,338.974L956.525,338.088L954.993,336.615L953.721,334.883L952.539,332.581L952.463,331.468L953.632,331.518L954.877,332.63L955.78,333.737L956.402,334.656L958.072,336.682ZM994.478,322.433L995.197,323.378L994.297,325.081L992.465,325.529L991.046,325.125L991.148,323.688L992.499,322.566L993.653,322.975ZM999.621,319.875L997.658,320.676L995.723,321.361L995.659,320.146L997.208,319.477L998.131,319.295L1000,318.279L999.621,319.875ZM0,318.279L0,318.279L0.535,318.129L0.566,319.698L0.379,319.875L0.379,319.875L0.379,319.875L0,318.279ZM965.952,319.582L964.936,320.013L964.324,318.582L964.613,317.71ZM964.963,314.584L964.869,317.213L964.205,316.804L963.587,316.981L963.385,316.081L963.83,313.579ZM639.537,310.085L639.763,314.01L640.392,315.534L640.013,317.102L639.46,318.063L638.642,316.147L638.051,317.113L638.424,319.533L638.092,320.914L637.271,321.671L636.897,324.434L635.529,328.244L633.814,332.747L631.586,338.946L630.129,343.494L628.539,347.289L626.244,348.065L623.726,349.451L622.236,348.614L620.183,347.444L619.581,345.715L619.655,342.812L618.904,340.203L618.834,337.85L619.51,335.492L620.821,334.927L620.913,333.837L622.415,331.363L622.812,329.278L622.273,327.729L621.892,325.672L621.855,322.665L622.935,320.836L623.438,318.765L624.825,318.643L626.414,317.975L627.479,317.384L628.702,317.345L630.392,315.484L632.8,313.474L633.723,311.835L633.417,310.439L634.58,310.831L636.234,308.568L636.393,306.604L637.388,305.148L638.285,306.549L638.958,307.934ZM900.078,310.764L900.66,313.325L902.661,312.094L903.351,313.474L904.463,314.75L903.914,316.196L903.993,318.991L904.096,320.621L904.716,321.019L904.892,323.81L904.26,325.507L904.667,327.718L907.269,329.427L908.858,330.982L910.357,332.404L909.793,333.195L910.846,335.248L910.972,338.786L912.266,338.066L912.994,339.483L913.805,338.979L913.296,342.447L914.643,344.458L915.533,345.71L916.838,348.359L916.749,350.992L916.193,352.86L915.315,354.884L915.621,357.667L914.406,360.567L913.371,362.087L911.523,365.009L910.841,366.889L909.366,369.234L906.95,372.216L904.303,373.823L902.235,376.36L900.638,377.977L898.594,380.799L896.834,382.426L895.034,384.869L893.626,387.118L893.26,388.15L891.209,389.282L888.219,389.403L885.149,390.738L883.336,392.001L881.067,393.4L879.619,391.957L878.3,391.383L879.519,389.685L877.794,390.303L874.375,392.662L872.546,391.78L871.307,391.262L869.922,391.03L867.831,390.087L867.063,388.079L867.678,385.599L867.792,383.952L867.061,382.625L864.69,382.232L866.22,380.645L866.576,378.22L864.356,380.479L861.755,381.082L863.887,379.272L865.049,377.384L866.707,375.784L867.44,373.357L864.19,376.149L862.084,377.268L860.031,379.87L858.501,378.525L859.269,376.792L858.517,374.416L857.567,373.191L858.349,372.432L855.649,370.448L853.805,370.354L851.793,368.763L846.884,369.073L843.021,370.243L839.592,371.335L837.118,371.118L833.713,372.798L831.136,373.557L830.029,375.269L828.572,376.598L826.286,376.681L824.52,376.969L822.375,376.376L820.348,376.731L818.469,376.88L816.285,378.624L815.562,378.48L813.902,379.405L812.27,380.44L810.381,380.313L808.609,380.313L806.513,378.226L805.3,377.6L805.979,375.728L807.447,375.28L808.141,374.537L808.426,373.363L809.478,371.085L809.784,369.145L809.365,365.83L809.476,363.961L810.126,362.098L809.644,359.963L809.84,358.998L808.994,357.695L809.327,355.128L808.441,352.538L808.404,351.141L809.249,352.555L809.082,349.517L810.196,350.465L810.696,351.735L811.06,350.055L810.322,347.478L810.306,346.447L809.891,345.466L810.621,343.577L811.352,342.768L812.083,341.134L812.203,339.218L813.816,336.864L813.508,339.356L815.142,337.108L817.592,336.012L819.22,334.617L821.56,333.416L822.86,333.162L823.544,333.566L825.957,332.348L827.697,331.983L828.253,331.269L829.046,330.971L830.551,331.048L833.638,330.091L835.417,328.642L836.451,326.894L838.378,325.236L838.741,323.931L839.119,322.157L841.52,319.383L842.215,322.201L843.515,321.549L842.786,320.008L843.915,318.422L845.02,319.129L845.758,316.649L847.527,315.042L848.392,313.756L849.877,313.198L850.05,312.288L851.218,312.668L851.386,311.852L852.676,311.382L854.083,310.941L855.923,312.437L857.186,314.369L858.915,314.391L860.64,314.7L860.325,312.906L862.041,310.295L863.427,309.44L863.097,308.629L864.564,306.764L866.401,305.617L867.779,306.003L870.21,305.39L870.371,303.725L868.449,302.649L869.995,302.175L871.749,302.986L873.072,304.32L875.318,305.153L876.155,304.822L877.753,305.826L879.504,304.894L880.523,305.175L881.258,304.552L882.32,306.163L881.335,307.906L880.091,309.225L879.111,309.335L879.239,310.637L878.177,312.266L876.931,313.872L876.982,314.788L878.892,316.594L880.852,317.638L882.082,318.765L883.734,320.698L884.514,320.693L885.803,321.527L886.036,322.538L888.46,323.644L890.509,322.527L891.4,320.776L892.234,319.328L892.904,317.538L894.213,314.943L894.09,313.364L894.445,312.42L894.423,310.549L895.168,308.094L895.797,307.431L895.521,306.345L896.433,304.618L897.194,302.826L897.382,301.899L898.581,300.675L899.167,302.269L899.089,304.315L899.74,304.706L899.659,306.08L900.433,307.735L900.364,309.583ZM953.486,300.074L954.116,301.194L952.166,301.172L951.372,299.17L952.939,299.953ZM837.749,299.281L836.564,299.341L833.073,297.059L835.742,296.42L837.122,297.412L838.006,298.404ZM950.203,298.084L949.105,298.162L947.434,297.831L946.912,297.329L947.24,296.034L949.023,296.547L949.857,297.23ZM952.632,297.197L952.134,297.798L950.398,294.976L950.039,293.031L950.987,293.031L951.702,295.637ZM848.197,298.955L845.726,299.672L845.434,299.281L845.796,298.173L847.185,296.188L850.075,294.893L850.465,294.127L852.939,293.394L854.905,293.284L855.818,292.876L856.842,293.284L855.737,294.166L852.694,295.588L850.258,296.525ZM830.477,292.298L831.418,293.168L833.174,292.904L833.758,294.287L830.466,294.943L828.483,295.378L826.983,295.351L828.095,293.477L829.64,293.449ZM844.503,292.298L843.941,294.105L839.656,295.031L835.959,294.629L836.057,293.438L838.331,292.761L840.008,293.736L841.894,293.488ZM948.056,293.086L948.106,293.742L946.053,292.358L944.637,291.19L943.692,290.105L944.137,289.775L945.355,290.557L947.507,292.055ZM941.826,289.868L941.244,290.05L940.09,289.312L939.055,287.973L939.242,287.428L940.801,288.805ZM804.749,288.012L810.113,288.337L810.809,286.993L815.917,288.557L816.798,290.667L820.966,291.262L824.263,293.196L820.967,294.436L817.983,293.124L815.444,293.213L812.556,292.97L809.976,292.386L806.812,291.146L804.775,290.821L803.577,291.229L798.556,289.89L798.156,288.491L795.595,288.249L797.692,285.142L801.088,285.335L803.284,286.607L804.432,286.855ZM878.115,286.178L876.514,288.392L876.413,285.941L876.982,284.773L877.635,283.672L878.215,284.624ZM937.323,288.15L936.508,288.475L935.4,287.224L934.327,285.159L933.9,282.68L934.304,282.367L934.545,283.33L935.344,284.068L936.558,286.134L937.794,287.235ZM926.722,283.782L925.228,284.046L924.721,284.96L923.128,285.754L921.636,286.514L920.141,286.508L917.907,285.566L916.374,284.658L916.673,283.65L919.159,284.123L920.712,283.87L921.235,282.311L921.644,282.229L921.808,283.958L923.421,283.71L924.281,282.598L925.917,281.436L925.717,279.52L927.399,279.459L927.938,279.993L927.787,281.794ZM857.57,277.213L856.479,278.292L854.559,277.697L854.06,276.299L856.908,276.139ZM866.665,276.023L867.596,278.512L865.28,277.169L862.943,276.899L861.347,277.114L859.409,276.998L860.123,275.209L863.608,275.076ZM930.161,280.599L929.232,281.463L928.811,279.547L928.215,278.286L926.987,277.224L925.443,275.836L923.453,274.878L924.257,274.091L925.745,275.005L926.671,275.721L927.825,276.502L928.891,277.868L929.915,278.909ZM877.128,269.709L877.807,274.966L880.646,276.915L883.1,273.463L886.371,271.504L888.871,271.498L891.256,272.632L893.311,273.799L896.309,274.421L901.111,276.662L906.224,278.523L908.087,280.186L909.556,281.821L909.875,283.743L914.407,285.754L914.965,287.477L912.351,287.83L912.798,289.995L915.106,292.133L916.569,295.588L918.185,295.477L917.913,296.921L920.017,297.473L919.098,298.084L921.903,299.457L921.482,300.4L919.6,300.626L919.012,299.782L916.66,299.418L913.889,298.928L911.954,296.85L910.556,295.059L909.387,292.21L905.864,290.783L903.408,291.714L901.593,292.788L901.708,295.191L899.393,296.31L897.888,295.764L894.998,295.626L892.769,292.954L889.983,292.303L889.202,293.229L885.642,293.328L887.067,290.678L888.908,289.775L888.446,286.238L887.268,283.506L881.978,280.753L879.676,280.478L875.588,277.471L874.694,279.052L873.6,279.338L873.012,278.149L873.055,276.734L870.962,275.137L874.02,273.964L876.022,274.025L875.811,273.166L871.692,273.161L870.618,271.223L868.118,270.623L866.954,269.01L870.746,268.223L872.189,267.166L876.695,268.498ZM852.087,261.341L849.86,264.573L847.747,265.195L845.042,264.562L840.356,264.721L837.898,265.189L837.5,267.65L839.983,270.546L841.518,269.07L846.77,267.964L846.535,269.461L845.315,268.988L844.067,270.898L841.567,272.159L844.124,276.326L843.582,277.444L845.949,281.199L845.823,283.336L844.276,284.289L843.235,283.149L844.717,280.483L841.899,281.744L841.243,280.841L841.66,279.586L839.709,277.681L840.017,274.509L838.109,275.495L838.224,279.288L838.119,283.947L836.315,284.415L835.163,283.462L836.102,280.467L835.786,277.328L834.604,277.306L833.8,275.076L835.014,272.946L835.462,270.364L836.897,265.459L837.479,264.121L839.856,261.705L842.063,262.663L845.61,263.114L848.837,262.976L851.59,260.615ZM861.795,262.277L861.664,265.123L860.215,264.804L859.791,266.78L860.936,268.498L860.143,268.889L859.022,266.83L858.176,262.674L858.706,260.075L859.613,258.892L859.849,260.664L861.514,260.95ZM797.042,284.999L793.926,285.065L791.685,282.345L788.187,279.69L787.046,277.719L784.991,275.071L783.642,272.632L781.546,268.079L779.081,265.365L778.248,262.569L777.177,260.031L774.612,257.983L773.083,255.197L770.918,253.38L767.864,249.79L767.556,248.138L769.36,248.27L773.733,248.898L776.339,252.075L778.582,254.283L780.166,255.638L782.901,259.134L785.765,259.183L788.155,261.413L789.806,264.138L791.946,265.624L790.816,268.278L792.417,269.406L793.428,269.489L793.877,271.757L794.827,273.573L796.886,273.86L798.204,275.919L797.37,279.966ZM831.36,260.02L834.556,263.026L831.23,263.411L830.297,265.63L830.409,268.575L827.683,270.799L827.552,274.041L826.32,279.013L825.946,277.857L822.698,279.321L821.654,277.334L819.657,277.147L818.282,276.106L814.909,277.273L813.932,275.704L812.086,275.88L809.779,275.506L809.431,271.14L808.046,270.237L806.711,267.457L806.327,264.611L806.628,261.595L808.266,259.437L810.348,260.549L812.505,259.943L813.016,257.19L814.205,256.574L817.555,255.869L819.486,253.298L820.793,251.239L821.853,250.022L824.154,248.243L826.195,245.979L827.454,243.434L828.585,243.423L830.132,245.07L830.346,246.486L832.246,247.395L834.632,248.369L834.493,249.647L832.621,249.807L833.197,251.398L831.169,252.505L829.673,255.44L831.817,258.523ZM854.154,238.586L854.614,240.746L854.914,242.575L854.167,245.55L852.91,242.234L851.714,243.886L852.767,246.282L852.058,247.808L848.643,245.919L847.702,243.561L848.441,242.019L846.548,240.476L845.772,241.826L844.44,241.699L842.498,243.517L841.968,242.564L842.864,239.821L844.556,238.906L845.976,237.677L847.089,239.154L849.153,238.261L849.48,236.806L851.449,236.724L851.05,234.205L853.466,235.748L853.848,237.385ZM727.946,245.803L725.53,246.547L724.091,243.958L723.373,239.281L724.338,233.995L726.385,235.803L727.818,238.096L729.349,241.49L729.08,244.878ZM329.486,233.064L327.131,233.422L326.642,233.13L327.503,232.231L327.51,230.947L329.143,230.522L329.721,230.638ZM846.881,232.513L845.982,233.588L845.301,235.643L844.511,236.608L842.58,234.354L843.07,233.483L843.684,232.573L843.775,230.55L845.295,230.357L845.082,232.551L846.81,229.408ZM831.843,235.649L828.38,238.741L829.565,236.459L831.403,234.453L832.87,232.198L834.003,228.962L834.776,231.62L833.109,233.411ZM840.439,227.258L842.224,228.267L844.004,228.261L844.107,229.624L842.958,231.008L841.288,231.989L841.029,230.473L841.049,228.813ZM850.437,226.375L851.648,230.015L849.397,229.149L849.57,230.247L850.47,232.254L849.216,232.987L848.864,230.693L848,230.522L847.347,228.554L849.017,228.813L848.833,227.578L846.83,225.09L849.512,225.162ZM838.975,223.424L838.579,226.237L837.186,224.61L835.445,222.127L837.849,222.248ZM835.656,205.689L837.528,206.618L838.221,205.772L838.631,206.601L838.415,207.956L839.767,210.293L839.486,213.006L838.018,214.089L837.989,216.717L838.986,219.318L840.51,219.677L841.689,219.29L845.422,221.101L845.39,222.872L846.406,223.655L846.306,225.156L843.933,223.556L842.674,221.846L842.119,223.043L840.083,221.09L837.609,221.57L836.129,220.852L836.085,219.505L836.84,218.672L835.901,217.921L835.707,219.097L834.067,217.22L833.447,215.801L832.856,212.675L834.145,213.752L833.597,208.641L833.972,205.684ZM318.446,206.59L317.659,207.414L315.577,207.392L313.941,207.508L313.92,206.109L314.366,205.634L316.626,205.65L318.012,205.938ZM287.005,207.762L286.106,208.309L284.609,207.784L283.16,206.596L283.586,205.849L284.768,205.623L285.392,205.733L287.221,206.026L288.596,206.811L288.956,207.701ZM299.708,201.221L302.043,201.735L302.445,201.176L304.599,201.193L306.143,202.034L306.878,201.951L307.247,203.107L308.766,203.046L308.571,204.019L309.793,204.135L311.021,205.335L309.859,206.662L308.616,205.955L307.337,206.093L306.437,205.938L305.877,206.529L304.799,206.734L304.454,205.938L303.488,206.408L302.149,208.647L301.495,208.127L301.453,207.187L299.668,206.635L298.338,206.861L296.679,206.623L295.318,207.232L293.944,206.214L294.301,205.164L296.799,205.617L298.863,205.877L299.938,205.153L298.831,203.737L298.994,202.487L297.314,201.978L298.036,201.077ZM805.174,205.12L803.041,206.69L800.605,205.678L800.055,202.863L801.16,201.386L804.016,200.468L805.609,200.546L806.45,201.796L805.489,203.234ZM70.125,203.792L69.585,204.34L69.01,203.875L69.312,202.963L69.151,201.768L69.38,201.409L69.992,200.872L69.967,200.23L70.204,199.926L70.397,199.987L71.318,200.54L71.733,200.822L72.07,201.259L72.492,202.404L72.377,202.587L71.133,203.284ZM69.93,198.692L68.935,198.93L68.651,198.238L68.405,197.973L68.43,197.768L68.772,197.491L69.67,197.801L70.262,198.299ZM68.52,196.954L68.336,197.303L66.885,197.209L67.202,196.81ZM66.183,196.478L65.983,196.666L65.806,196.622L64.877,196.506L64.735,195.77L64.663,195.637L65.522,195.183L65.691,195.393ZM62.136,194.319L61.717,194.64L60.967,194.048L61.175,193.81L61.693,193.489L62.307,193.555ZM281.43,191.755L282.341,192.952L284.963,192.586L285.822,193.35L287.864,195.377L289.379,196.855L290.296,196.81L291.845,197.475L291.527,198.399L293.544,198.532L295.461,199.871L295.04,200.634L293.152,201.049L291.275,201.209L289.408,200.955L285.415,201.27L287.493,199.45L286.483,198.598L284.736,198.382L283.91,197.436L283.511,195.576L281.938,195.703L279.499,194.823L278.777,194.137L275.271,193.633L274.407,192.996L275.559,192.176L272.888,192.01L270.661,193.71L269.517,193.755L269.001,194.552L267.581,194.912L266.461,194.602L268.06,193.588L268.835,192.409L270.193,191.683L271.695,191.041L273.817,190.731L274.534,190.371L276.866,190.603L279.021,190.642ZM287.787,188.504L287.093,188.665L286.693,186.781L285.819,185.833L286.742,183.755L287.546,183.883L288.069,186.604ZM832.387,191.672L831.806,194.358L829.752,191.595L828.882,189.169L829.721,185.95L831.296,183.473L832.789,184.448L832.798,186.426ZM288.501,179.265L285.445,179.792L285.471,178.578L286.787,178.317L288.569,178.417ZM290.738,179.232L289.878,181.56L289.447,181.145L289.774,179.432L288.784,178.134L288.839,177.763ZM857.416,154.475L858.188,155.599L857.45,157.576L855.961,156.529L854.878,157.288L854.89,159.205L852.809,158.275L852.248,156.718L852.98,154.768L854.636,155.145L855.192,153.772ZM591.275,149.5L589.631,150.888L589.893,151.502L589.997,151.768L587.411,153.096L586.072,152.67L585.336,151.358L586.581,151.237L586.76,151.22L587.063,150.429L588.97,150.473ZM562.557,149.389L564.083,150.49L566.123,150.302L568.111,150.534L568.088,151.104L569.495,150.711L569.238,151.679L565.447,151.956L565.436,151.414L562.162,150.778ZM540.561,141.149L539.747,143.714L540.184,144.725L539.716,146.398L537.644,145.172L536.295,144.819L532.571,143.162L532.86,141.485L535.933,141.783L538.589,141.43ZM523.76,131.467L525.382,133.767L525.164,138.068L523.977,137.859L522.951,138.944L521.941,138.085L521.723,134.163L521.073,132.306L522.5,132.471ZM870.026,144.697L870.203,147.305L871.372,148.941L870.975,151.242L868.232,152.781L863.658,152.98L861.349,156.718L859.082,155.461L858.004,153.013L853.677,153.733L851.129,155.278L848.043,155.339L851.646,157.748L851.855,163.313L850.601,164.687L848.863,163.418L848.493,160.463L846.461,159.51L844.565,157.266L846.713,156.258L847.326,154.204L849.344,152.51L850.393,150.28L855.252,149.301L858.351,149.97L858.634,144.167L861.065,145.724L863.464,142.462L864.373,141.198L864.126,137.215L861.897,133.564L861.951,131.511L864.386,130.918L868.078,135.416L869.287,138.052L868.443,141.331ZM524.553,128.414L523.787,130.913L522.597,130.255L521.935,128.075L522.413,126.877L524.02,125.642ZM865.996,121.889L868.173,122.575L869.195,121.214L871.824,124.828L868.525,125.713L868.011,128.924L862.802,126.713L863.261,130.249L860.431,130.299L858.396,127.085L858.337,124.599L860.96,124.419L859.215,119.969L858.529,117.471L863.432,120.811ZM340.07,114.277L341.783,114.704L344.132,114.618L342.548,115.927L341.57,116.133L338.731,114.78L338.398,113.71L339.617,112.722ZM346.936,106.157L345.716,106.216L342.794,105.222L340.94,103.733L341.87,103.471L344.878,104.261L347.027,105.58ZM193.087,108.043L191.592,108.483L188.32,107.04L188.208,105.922L186.638,104.816L186.718,103.919L184.517,103.349L184.595,101.64L185.248,100.913L187.405,101.598L188.634,102.071L190.746,102.406L190.943,103.493L191.307,104.987L193.035,106.291ZM362.283,101.173L359.927,103.924L361.811,102.864L363.294,103.535L362.142,104.634L364.12,105.499L365.452,104.73L367.677,105.703L366.348,108.021L368.213,107.48L368.138,109.159L368.453,111.133L366.761,113.937L365.605,114.056L364.088,113.456L365.237,110.847L364.641,110.444L361.086,113.208L359.614,113.095L361.739,111.601L359.525,110.826L356.798,111.014L351.976,110.917L351.834,109.976L353.677,108.858L352.819,108L355.414,106.093L359.306,101.077L361.307,99.295L363.718,98.216L364.814,98.354L364.113,99.2ZM181.244,90.741L183.719,90.496L180.636,94.007L181.117,96.506L180.149,96.5L179.616,95.079L179.664,93.65L179.093,92.686L179.573,91.326L180.384,90.344ZM852.294,100.987L858.5,106.564L854.155,105.521L855.552,110.099L860.01,113.359L861.291,115.591L858.219,113.667L858.053,116.138L855.987,113.456L854.366,110.358L851.92,106.933L850.949,104.549L848.267,100.345L844.731,97.27L841.951,93.021L843.156,91.603L841.158,90.172L841.901,89.74L844.031,91.78L847.017,94.763L849.115,97.825ZM483.508,96.258L479.118,98.1L475.691,97.63L477.811,94.38L476.702,91.232L480.078,88.819L481.944,87.386L483.948,87.261L486.449,89.157L485.097,91.273L485.428,93.482ZM530.156,85.926L528.894,88.403L526.29,86.676L525.882,85.404L529.301,84.398ZM140.164,81.346L136.841,82.499L136.298,81.72L137.149,80.302L140.199,79.23L141.842,78.772L143.223,78.976L143.412,79.909ZM493.012,76.775L490.45,80.026L492.846,79.613L495.409,79.628L494.771,82.089L492.605,84.815L495.052,85.011L497.334,88.944L498.97,89.438L500.447,92.953L501.137,94.175L504.077,94.768L503.796,96.759L502.557,97.672L503.542,99.285L501.346,100.929L498.071,100.897L493.886,101.763L492.745,101.146L491.103,102.614L488.835,102.257L487.08,103.461L485.784,102.832L489.457,99.534L491.66,98.861L487.839,98.338L487.177,97.096L489.747,96.131L488.457,94.453L488.957,92.424L492.546,92.707L492.92,90.913L491.313,88.975L488.424,88.434L487.878,87.603L488.78,86.236L488.015,85.393L486.698,86.836L486.641,83.898L485.501,82.351L486.459,79.225L488.347,76.785L490.201,77.023ZM118.512,72.969L116.642,73.431L115.672,72.878L115.078,72.07L117.844,71.564L119.397,71.835ZM320.527,66.349L318.898,67.884L318.012,67.636L317.844,66.764L318.05,66.561L319.354,65.687L320.25,65.751ZM315.387,64.735L311.922,66.344L310.358,66.28L310.271,65.489L312.65,64.145L315.722,64.175ZM116.245,61.632L117.021,62.184L118.738,61.886L119.73,62.649L121.545,63.036L121.026,63.349L118.668,63.963L117.63,63.335L117.337,62.81L115.179,62.977L114.922,62.722ZM312.655,56.265L312.363,57.514L313.742,57.075L314.61,57.823L316.5,58.805L318.567,59.698L318.052,61.065L319.806,60.841L320.916,61.798L318.461,62.707L315.338,62.013L314.769,60.715L311.742,62.247L307.743,63.747L307.892,62.052L304.701,62.33L307.435,60.905L308.969,58.645L311.196,56.03ZM468.298,54.002L467.615,55.833L469.925,57.775L466.842,59.96L460.205,61.934L458.21,62.458L455.321,62.032L449.211,61.119L451.582,59.849L446.956,58.447L450.958,57.895L450.984,57.055L446.462,56.395L448.241,54.547L451.619,54.131L454.764,56.049L458.299,54.509L460.953,55.309L464.693,53.801ZM335.241,52.048L332.728,52.19L332.908,50.819L334.653,49.256L336.831,48.87L338.112,49.638L337.52,50.834L337.071,51.222ZM626.64,131.231L628.36,133.531L629.598,133.685L630.546,134.558L628.465,134.817L628.441,137.342L628.193,138.481L627.363,139.242L627.693,140.856L628.91,143.262L631.501,143.941L633.589,145.575L637.419,146.139L641.379,145.277L641.502,144.509L640.61,142.208L640.374,138.801L638.149,137.699L638.402,135.471L636.649,135.284L636.705,132.548L639.295,133.344L641.363,132.306L639.103,130.359L637.993,128.507L636.084,129.334L636.284,131.708L635.073,129.608L634.781,128.82L635.144,127.473L634.431,126.347L631.246,125.243L629.523,122.352L627.949,121.535L627.657,120.491L630.187,120.795L629.8,118.448L631.838,117.927L634.153,118.404L633.92,115.283L633.025,113.311L630.548,113.462L628.247,112.685L625.651,114.088L623.449,114.758L622.685,116.653L620.346,117.178L618.467,120.491L621.344,123.546L621.495,125.718L624.981,129.526ZM898.257,58.195L898.258,58.21L896.872,59.47L893.749,59.256L897.501,60.788L901.534,63.168L903.447,63.948L905.049,65.149L905.332,65.924L900.416,65.287L896.465,67.488L894.808,67.83L893.481,69.895L892.009,71.704L892.523,73.054L887.179,71.003L883.492,73.331L881.368,72.226L880.387,73.502L876.915,73.094L878.029,75.049L877.944,77.947L879.141,79.164L882.418,79.837L886.063,84.248L883.963,84.361L885.158,86.914L887.283,88.237L884.413,89.802L886.47,93.33L883.463,94.086L885.213,97.244L883.913,100.159L881.383,98.005L876.839,93.466L869.99,86.624L867.584,82.402L868.004,80.593L866.895,79.184L869.926,78.512L870.639,74.741L871.726,71.684L873.547,69.331L871.226,65.203L868.737,65.45L869.787,67.86L867.132,71.089L861.783,67.473L856.873,68.471L855.721,73.421L859.278,75.246L854.792,76.025L851.467,76.334L849.746,74.177L845.764,73.723L844.173,75.191L836.649,74.676L829.771,75.56L826.863,81.428L823.072,88.621L827.117,89.006L829.657,90.934L832.481,91.624L832.921,90.079L835.701,90.282L841.613,93.681L843.547,96.321L843.782,99.444L846.065,103.189L848.17,108.241L847.215,112.841L847.663,115.05L846.36,118.779L844.965,122.488L844.327,124.391L841.895,126.281L840.304,126.325L837.897,124.757L835.647,127.118L835.78,128.195L834.704,127.998L834.128,129.099L833.887,130.2L835.077,132.526L834.077,133.24L833.877,133.817L833.343,134.773L831.857,135.306L831.116,136.18L831.652,137.589L831.509,137.947L832.779,138.476L834.87,139.903L838.761,143.747L840.279,145.863L841.823,149.627L841.527,151.425L839.366,152.05L837.761,153.406L835.48,153.689L834.518,151.906L834.077,149.455L831.575,146.056L833.304,145.509L830.371,142.715L828.842,142.092L828.776,142.71L828.123,142.98L827.776,142.362L826.975,142.064L826.056,141.546L826.185,140.112L826.636,139.732L826.15,139.137L826.065,137.38L825.666,136.846L823.989,136.494L822.389,135.625L819.167,136.566L817.899,138.09L815.453,138.977L816.216,137.468L815.142,136.202L816.263,134.02L814.153,132.317L812.399,133.465L810.428,135.724L809.694,137.821L807.21,137.98L806.484,139.495L808.732,141.7L811.078,142.235L811.729,143.698L814.172,144.647L816.2,142.324L819.03,143.593L820.752,143.676L821.86,145.387L818.483,146.299L817.918,148.062L815.958,149.699L815.431,151.989L818.918,153.783L821.078,157.006L823.71,160.003L826.357,162.52L827.091,164.954L825.69,165.846L826.869,167.593L828.77,168.613L829.153,171.28L829.217,173.876L827.79,174.17L826.792,177.718L825.716,182.015L824.147,185.922L821.092,188.942L817.896,191.7L814.886,192.077L813.511,193.527L812.34,192.464L811.125,194.092L807.614,195.731L804.8,196.229L804.509,199.682L803.016,199.876L801.853,197.502L802.267,196.24L798.371,195.188L797.177,195.725L794.018,198.52L792.266,201.608L792.038,203.875L794.699,207.32L797.935,211.586L800.742,213.603L802.794,216.226L804.829,222.259L805.09,227.991L802.968,230.136L799.961,232.237L797.905,234.949L794.649,237.98L793.474,235.897L794.082,233.687L791.849,231.84L789.46,231.36L788.18,229.668L786.437,226.298L783.782,224.803L781.397,224.864L781.538,222.304L779.081,222.32L779.231,225.906L778.164,230.666L777.496,233.543L777.868,235.903L779.7,236.002L781.048,238.972L781.731,241.793L783.403,243.655L785.121,244.035L786.665,245.72L787.327,246.029L789.078,247.989L790.344,250.17L790.588,252.362L790.343,253.843L790.649,254.961L790.9,256.882L791.912,257.779L793.064,260.659L793.027,261.754L791.035,261.974L788.342,259.563L784.963,256.981L784.599,255.324L782.907,253.149L782.429,250.457L781.346,248.683L781.541,246.31L780.856,244.933L779.678,243.682L779.113,242.074L777.507,240.234L776.045,238.691L775.713,240.603L775.064,238.796L775.228,236.762L775.821,233.643L775.352,231.223L776,228.73L774.875,226.8L774.752,223.247L773.439,221.559L772.097,217.656L771.094,213.536L769.532,210.829L767.919,212.47L765.059,214.796L763.462,214.503L761.649,213.741L762.094,209.697L761.099,206.635L758.389,202.869L758.552,201.691L756.869,201.27L754.506,198.609L753.453,196.899L753.026,195.233L752.242,193.66L750.774,191.755L748.225,191.628L748.697,192.974L748.135,194.795L746.86,194.131L746.551,194.729L745.721,194.369L744.606,194.076L744.41,195.271L742.533,195.233L739.242,195.908L739.77,198.371L738.581,200.302L734.911,202.504L732.314,206.347L730.482,208.409L727.976,210.542L728.134,212.045L726.842,212.851L724.467,214.023L723.184,214.194L722.593,216.679L723.572,220.924L723.957,223.628L723.022,226.723L723.41,232.259L721.97,232.419L720.857,234.899L721.767,235.974L719.269,236.895L718.45,239.11L717.367,240.046L714.555,237.005L712.997,232.446L711.704,229.16L710.62,227.622L708.9,224.489L707.88,220.411L707.223,218.374L704.281,213.895L702.495,207.569L701.209,203.389L700.753,199.428L699.839,196.368L696.076,198.321L694.086,197.934L690.015,193.97L691.18,192.786L690.204,191.501L686.624,188.726L684.514,187.895L683.38,185.54L680.925,183.051L675.984,183.667L671.564,183.728L667.784,184.188L662.524,183.195L659.467,182.442L656.335,182.02L654.679,178.001L653.305,177.419L651.288,178.007L648.743,179.592L645.297,178.506L642.252,175.988L639.536,175.057L637.349,171.946L634.816,167.576L633.44,168.109L631.59,167.022L630.75,168.303L629.132,168.142L629.867,169.589L629.713,170.338L630.866,172.805L632.249,175.634L633.67,176.382L634.258,177.53L636.268,178.905L636.573,180.258L636.427,181.35L636.888,182.453L637.77,183.367L638.246,184.442L638.733,185.246L638.305,182.863L638.855,181.145L639.56,180.79L640.497,181.821L640.754,183.733L640.359,185.662L641.01,186.914L641.475,186.753L641.676,187.651L643.759,187.136L646.032,187.219L647.696,187.318L649.323,185.102L651.116,183.001L652.603,180.984L653.25,179.869L653.628,180.152L653.538,181.505L653.247,182.104L653.924,184.686L655.41,186.925L657.07,188.111L659.128,188.543L660.812,189.136L662.257,191.013L663.118,192.099L664.151,192.514L664.222,193.245L663.432,195.194L663.092,196.113L662.041,197.159L661.232,199.395L659.965,199.223L659.464,200.003L659.183,201.663L659.72,203.848L659.497,204.246L658.222,204.235L656.596,205.457L656.461,207.049L655.89,207.74L654.163,207.712L653.141,208.536L653.254,209.857L651.986,210.763L650.435,210.454L648.658,211.553L647.392,211.736L645.446,212.614L645.005,214.067L645.019,215.177L642.334,216.552L637.979,218.076L635.614,220.378L634.4,220.554L633.558,220.367L631.994,221.719L630.249,222.342L627.919,222.513L627.226,222.701L626.655,223.562L625.933,223.799L625.55,224.626L624.16,224.555L623.286,224.996L621.349,224.831L620.54,222.927L620.537,221.145L620.029,220.184L619.367,217.772L618.496,216.43L619.048,216.27L618.678,214.779L618.984,214.15L618.785,212.73L618.345,211.332L617.449,210.354L617.152,209.05L615.656,207.878L614.013,205.142L613.057,202.476L611.002,200.23L609.735,199.694L607.702,196.578L607.228,194.303L607.209,192.365L605.373,188.737L603.996,187.457L602.469,186.781L601.422,184.902L601.513,184.165L600.625,182.464L599.774,181.738L598.524,179.298L596.65,176.659L595.092,174.408L593.738,174.425L594.019,172.622L594.041,171.48L594.26,170.171L594.131,169.695L593.486,171.014L593.107,173.488L592.513,175.195L591.924,175.767L590.935,174.707L589.603,173.249L587.305,168.552L587.048,168.846L588.439,172.306L590.36,175.6L592.797,180.701L593.927,182.48L594.944,184.332L597.651,187.956L597.149,188.526L597.383,190.653L600.77,193.588L601.3,194.258L602.4,197.469L601.832,198.061L602.436,201.425L603.678,205.33L604.779,206.131L606.362,207.342L608.175,211.117L609.1,214.116L610.701,215.707L614.647,218.788L616.28,220.642L617.882,222.524L618.806,223.644L620.215,224.626L620.922,225.636L620.889,226.987L619.332,227.771L620.565,228.659L621.504,229.26L622.1,230.605L623.41,231.972L624.8,231.983L627.406,231.151L630.431,230.765L632.855,229.75L634.235,229.535L635.205,228.94L636.789,228.829L637.682,228.763L638.947,228.278L640.411,227.953L641.684,226.839L642.74,226.827L642.844,227.726L642.682,229.624L642.768,231.333L642.224,232.513L641.578,236.035L640.353,239.666L638.74,243.826L636.448,248.595L634.119,252.235L630.87,256.673L628.081,259.31L623.899,262.536L621.283,265.013L618.202,268.949L617.548,270.667L616.906,271.437L614.924,272.737L614.226,274.091L613.172,274.333L612.746,276.624L611.831,277.934L611.257,280.098L610.109,281.172L608.749,285.181L608.876,287.026L610.649,288.216L610.711,289.058L609.898,291.025L610.035,292.017L609.813,293.571L610.735,295.61L611.795,298.823L612.789,299.534L613.192,300.995L612.963,304.238L613.191,307.1L613.078,312.194L613.493,313.795L612.547,316.125L611.35,318.389L609.475,320.411L606.871,321.654L603.663,323.24L600.354,326.745L599.256,327.342L597.197,329.665L596.012,330.417L595.651,332.747L596.812,335.226L597.228,337.141L597.205,338.121L597.7,337.961L597.41,341.167L596.863,342.685L597.465,343.25L596.966,344.613L595.742,345.776L593.413,346.879L590.009,348.653L588.728,349.866L588.868,351.241L589.547,351.463L589.188,353.187L588.329,355.571L587.812,358.294L586.997,359.774L585.023,361.427L584.462,361.904L583.189,363.567L582.313,365.248L580.602,367.598L577.31,370.974L575.271,372.942L573.15,374.432L570.265,375.701L568.902,375.872L568.49,376.781L566.909,376.293L565.544,376.919L562.709,376.288L561.075,376.687L559.986,376.515L557.17,377.805L554.865,378.325L553.159,379.56L551.944,379.637L550.894,378.475L550,378.414L548.933,376.952L548.784,377.406L548.477,376.526L548.596,374.609L547.843,372.415L548.728,371.817L548.785,369.306L547.172,366.24L545.948,363.462L545.939,363.457L544.18,359.198L542.256,356.725L541.286,354.329L540.786,351.141L540.194,348.769L539.429,343.726L539.467,339.81L539.168,338.027L538.133,336.682L536.771,333.975L535.406,330.058L534.851,328.006L532.659,324.816L532.531,322.312L532.305,320.256L532.729,317.389L533.734,314.402L533.905,313L534.848,310.063L535.529,308.723L537.154,306.593L538.078,305.142L538.401,302.727L538.272,300.879L537.45,299.716L536.726,297.743L536.06,295.786L536.217,295.114L537.086,293.819L536.265,290.678L535.706,288.497L534.316,286.436L534.582,285.803L534.194,284.795L533.459,282.35L531.167,278.903L528.294,275.622L526.437,272.935L524.731,269.577L524.823,268.498L525.441,267.457L526.119,265.09L526.685,262.679L526.158,262.184L527.125,258.534L527.524,255.963L526.426,253.815L525.14,253.265L524.569,251.806L523.85,251.338L523.877,250.44L520.958,251.613L519.896,251.437L518.816,252.169L516.571,252.097L515.06,250.06L514.135,247.709L512.139,245.561L510.028,245.605L507.552,245.599L505.239,245.979L502.976,246.673L498.57,248.579L497.012,249.697L494.484,250.638L491.978,249.713L490.704,249.752L488.743,249.113L486.944,249.151L483.617,249.719L481.663,250.655L478.879,251.85L478.333,251.767L477.595,251.795L474.708,250.242L472.17,247.764L469.784,245.985L467.907,243.886L467.151,243.644L465.14,242.333L463.7,240.592L463.215,239.402L462.894,236.994L461.683,235.07L460.608,233.792L459.898,233.373L459.21,232.722L458.906,231.283L458.502,230.566L457.704,230.032L456.223,228.67L455.05,228.454L454.43,227.539L454.448,227.043L453.614,226.353L453.445,225.653L453.026,223.153L453.413,221.708L452.308,219.169L450.949,218.009L452.184,217.391L453.573,215.1L454.269,213.42L454.068,211.664L454.883,210.056L455.294,206.977L455.074,203.754L454.777,202.128L455.099,200.496L454.426,198.941L453.019,197.53L453.178,196.152L453.352,194.635L454.428,193.743L455.379,192.038L455.235,190.93L456.253,188.62L457.844,186.537L458.775,186.011L459.561,184.104L459.674,182.358L460.717,180.335L462.565,179.138L464.395,175.794L465.838,174.491L468.372,174.125L470.564,171.89L471.937,171.014L474.256,168.28L473.68,164.205L474.774,161.389L475.174,159.66L476.947,157.449L479.645,155.953L481.644,154.602L483.484,151.215L484.349,149.212L486.296,149.223L487.863,150.612L490.378,150.385L493.112,151.109L494.263,151.143L496.812,149.356L499.663,148.792L501.323,147.443L503.859,146.448L508.313,145.868L512.652,145.603L513.985,146.084L516.439,144.802L519.245,144.774L520.332,145.531L522.124,145.338L524.939,144.018L526.793,144.41L526.762,146.061L528.953,144.863L529.165,145.487L527.903,147.084L527.934,148.598L528.873,149.411L528.623,152.238L526.928,153.882L527.487,155.665L528.857,155.721L529.576,157.277L530.609,157.787L533.775,158.917L534.889,158.635L537.137,159.178L540.732,160.641L542.106,163.556L544.545,164.188L548.384,165.563L551.325,167.188L552.599,166.34L553.808,164.832L553.049,162.326L553.8,160.729L555.636,159.194L557.454,158.751L561.097,159.422L562.102,160.885L563.104,160.896L563.987,161.456L566.67,161.838L567.398,162.924L570.951,162.869L573.598,163.734L576.324,164.704L577.608,165.214L579.595,164.172L580.621,163.235L582.962,162.963L584.906,163.379L585.765,165.003L586.303,163.933L588.513,164.71L590.625,164.893L591.874,164.067L592.548,162.991L592.348,162.803L592.918,161.273L593.221,158.801L593.524,157.975L593.597,157.942L594.278,155.272L595.356,152.969L595.391,152.853L594.874,150.352L595.373,149.008L594.24,147.526L595.097,146.299L593.528,146.581L591.239,145.829L589.633,147.708L585.677,148.073L583.369,146.321L580.518,146.211L580.041,147.565L578.257,147.957L575.558,146.216L572.694,146.271L570.851,143.03L568.78,141.22L569.823,138.691L568.033,137.132L570.619,134.025L574.595,133.899L575.426,131.434L580.387,131.862L583.242,129.762L586.13,128.847L590.368,128.776L595.164,131.055L599.042,132.312L601.974,131.812L604.237,132.103L607.029,130.408L607.206,129.028L606.216,126.822L604.554,125.631L603.079,125.259L601.988,124.271L598.322,121.552L595.239,120.338L592.767,118.453L594.528,117.938L596.205,115.261L594.591,113.996L598.08,112.695L597.891,112L595.732,112.512L593.772,112.771L592.265,113.802L589.941,113.969L587.956,115.159L588.392,117.151L589.74,117.921L592.295,117.731L591.964,118.871L589.274,119.431L586.089,121.29L584.592,120.632L584.946,119.126L582.051,118.187L582.424,117.574L584.685,116.506L583.858,115.775L579.834,114.969L579.502,113.775L577.231,114.169L576.524,115.927L574.864,118.296L575.018,119.121L573.87,119.816L573.068,119.512L572.797,123.393L571.621,124.73L570.936,127.036L571.951,128.88L572.386,130.129L574.749,131.171L574.358,131.966L571.31,132.147L570.31,133.146L568.315,134.899L567.364,133.388L567.329,132.718L565.748,132.625L564.372,132.317L561.32,133.163L563.265,134.987L561.993,135.515L560.555,135.515L559.048,133.844L558.621,134.558L559.354,136.5L560.777,138.024L559.849,138.74L561.421,140.239L562.784,141.182L562.967,143.024L560.478,142.158L561.378,143.825L559.742,144.167L560.945,147.045L559.204,147.084L556.946,145.664L555.784,143.058L555.171,140.89L554.052,139.39L552.582,137.534L552.349,136.61L551.884,136.384L551.788,135.669L550.275,134.575L549.945,133.031L550.004,130.82L550.284,129.811L549.822,129.301L549.258,129.05L548.462,127.998L547.308,127.353L544.819,126.161L543.26,124.997L540.864,124.037L538.583,121.666L539.08,121.426L537.838,120.077L537.727,118.991L536.066,118.486L535.371,119.871L534.563,118.795L534.555,117.683L534.643,117.634L535.19,117.341L533.156,116.875L531.161,118.014L531.378,119.604L531.113,120.518L532.026,122.156L534.503,123.78L535.932,126.445L538.929,129.05L540.937,129.033L541.609,129.745L540.924,130.392L543.304,131.56L545.261,132.542L547.585,134.234L547.896,134.844L547.485,136.004L545.951,134.487L543.663,133.954L542.703,136.054L544.644,137.259L544.434,138.961L543.357,139.153L542.118,141.943L541.038,142.197L540.996,141.198L541.439,139.451L541.965,138.757L540.851,136.874L539.968,135.235L538.873,134.828L538.035,133.426L536.338,132.839L535.157,131.533L533.234,131.324L531.155,129.86L528.714,127.758L526.894,125.893L525.976,122.706L524.696,122.336L522.588,121.274L521.432,121.709L520.005,123.202L518.956,123.437L516.69,125.259L511.631,124.386L507.931,125.434L507.658,127.375L507.818,129.258L505.4,131.412L502.096,132.098L501.866,133.19L500.275,134.987L499.274,137.633L500.286,139.495L498.782,140.945L498.213,143.063L496.23,143.714L494.353,146.227L491.02,146.271L488.512,146.211L486.847,147.366L485.822,148.598L484.535,148.327L483.579,147.227L482.869,145.349L480.432,144.841L479.352,145.686L477.983,145.227L476.621,145.586L477.09,143.035L476.903,141.033L475.746,140.73L475.156,139.495L475.43,137.369L476.507,136.186L476.735,134.872L477.337,132.921L477.324,131.549L476.842,130.386L476.768,129.291L476.974,126.992L475.973,125.587L479.663,123.262L482.767,123.846L486.193,123.824L488.902,124.375L491.018,124.206L495.143,124.31L496.477,122.379L496.994,115.987L494.422,112.636L492.594,111.025L488.805,109.798L488.601,107.49L491.828,106.799L495.982,107.614L495.227,104.036L497.556,105.393L503.292,102.933L504.017,100.361L506.152,99.73L508.098,99.11L509.34,98.253L511.376,93.671L514.642,92.377L516.65,92.466L517.095,91.812L519.099,91.644L519.578,92.324L521.14,90.803L520.544,89.646L520.354,87.904L519.31,86.205L519.106,83.09L519.46,82.274L520.096,81.361L522.152,81.177L522.936,80.343L524.769,79.49L524.785,81.044L524.147,82.027L524.475,82.879L525.785,83.337L525.273,84.485L524.547,84.155L522.956,86.35L523.686,87.842L523.782,89.027L526.243,89.745L526.279,90.84L528.691,90.261L529.984,89.417L532.768,90.631L533.981,91.618L535.549,90.71L539.181,89.287L542.103,88.247L544.536,88.767L544.789,89.516L547.104,89.552L547.507,88.2L550.69,87.209L549.895,84.64L549.717,82.351L550.645,80.45L552.728,79.419L554.884,81.679L556.765,81.617L556.901,79.302L556.925,77.526L556.122,77.907L554.502,76.841L554.07,75.12L556.879,74.293L559.726,73.859L562.305,74.348L564.68,74.262L567.029,72.617L564.384,71.214L560.259,71.449L556.376,72.532L552.716,73.16L551.167,71.544L548.82,70.569L548.955,67.676L547.508,65.036L548.361,63.345L550.14,61.529L554.753,58.418L556.128,57.818L555.706,56.612L552.426,55.271L548.769,56.073L546.917,58.065L547.501,59.815L544.264,62.13L540.218,64.627L539.012,68.744L540.859,70.818L543.228,72.462L541.465,75.818L539.119,76.516L538.699,81.571L537.616,84.418L534.719,84.124L533.556,86.541L530.815,86.681L529.857,83.8L527.659,80.358L525.611,76.111L523.938,74.277L519.545,77.739L516.467,78.441L513.181,76.912L512.253,73.703L511.318,66.893L513.339,65.016L519.162,62.58L523.391,59.61L527.133,55.631L531.872,50.195L535.249,48.104L540.672,44.647L545.144,43.448L548.642,43.591L551.457,41.341L555.299,41.46L558.954,40.919L565.957,42.908L563.399,43.637L566.102,45.357L568.071,44.401L571.949,46.065L577.953,46.718L586.903,49.855L588.93,51.184L589.591,53.052L587.574,54.538L584.189,55.29L573.911,53.143L572.39,53.5L576.429,55.573L577.68,59.815L580.749,60.69L582.666,61.436L582.625,60.043L580.931,58.766L582.139,57.726L587.942,59.509L589.631,58.81L587.596,56.718L591.953,53.945L594.013,54.107L596.347,55.093L597.04,53.152L594.733,51.478L595.289,49.808L593.186,48.081L599.471,48.974L601.198,50.536L598.575,50.881L599.072,52.438L601.081,53.405L604.252,52.795L604.2,51.004L608.269,49.671L614.899,47.289L616.56,47.425L615.084,49.11L617.858,49.398L619.035,48.447L623.032,48.372L625.745,47.223L628.883,48.894L630.54,47.06L627.623,45.46L628.341,44.554L634.975,45.385L638.317,46.247L647.551,49.412L648.295,47.959L645.419,46.494L645.077,45.911L642.381,45.641L642.462,44.341L640.3,42.213L639.816,41.345L642.439,38.905L642.527,36.481L643.782,35.961L649.613,36.661L650.863,38.14L650.07,40.316L651.833,41.18L653.512,43.079L654.978,46.835L658.212,48.532L658.225,50.394L655.918,54.384L658.623,54.801L658.995,53.782L661.043,53.062L660.924,51.668L662.116,50.337L660.043,48.753L660.092,46.924L657.635,46.695L656.324,45.167L656.551,42.42L652.633,40.216L655.356,38.407L653.799,36.508L654.796,36.45L656.725,37.927L657.371,40.517L659.884,41.011L657.832,39.069L660.696,38.013L664.915,37.873L669.675,39.401L666.469,37.174L664.503,34.355L667.721,33.827L672.701,33.942L676.888,33.601L674.292,32.238L675.426,30.542L677.687,30.472L680.642,29.203L685.663,28.863L685.779,28.167L690.815,27.932L692.914,28.502L696.252,27.16L699.932,27.203L699.521,26.123L700.435,25.065L704.112,24.058L708.239,24.852L706.147,25.463L710.968,25.841L712.67,27.075L713.908,26.469L719.718,26.499L725.392,27.727L727.914,28.674L728.688,29.999L727.179,30.759L723.174,32.194L722.327,32.965L725.175,33.331L728.766,33.991L730.158,33.495L732.703,35.179L732.996,34.497L735.888,34.084L742.845,34.515L744.481,35.746L753.449,36.14L751.627,34.129L756.414,34.586L759.663,34.573L764.363,35.966L766.99,37.665L766.845,38.783L771.499,40.901L775.852,42.001L775.11,39.169L779.657,40.38L782.485,39.655L787.368,40.485L788.126,39.728L791.934,40.106L787.821,37.616L789.317,36.463L809.893,38.194L813.45,39.787L821.233,41.85L829.125,41.336L833.822,41.786L836.874,42.908L838.919,44.907L842.425,45.688L844.626,45.125L848.306,45.055L852.955,45.595L856.617,45.288L863.254,47.743L864.848,46.859L861.006,45.097L860.459,43.878L868.161,44.647L872.363,44.48L880.125,45.79L884.635,46.994L898.257,58.195ZM115.365,46.994L115.366,46.994L115.365,46.994L117.985,49.11L120.292,51.891L118.041,53.639L118.691,54.341L120.588,52.295L126.001,52.714L127.26,55.357L123.686,56.593L119.746,56.887L116.554,59.683L115.007,60.276L113.015,60.194L112.442,59.193L110.445,58.36L111.378,57.118L109.669,56.655L106.742,57.022L106.716,56.025L108.435,54.974L105.007,55.645L104.422,56.983L101.744,58.195L101.743,58.195L115.365,46.994ZM295.882,46.597L293.898,47.565L291.589,46.728L289.642,47.032L287.592,45.79L290.068,44.939L292.385,43.753L294.088,44.531L295.015,45.023L295.3,45.543ZM876.794,40.935L878.038,41.877L875.913,42.015L874.419,41.157L875.588,40.029L876.794,40.935ZM124.412,40.029L124.413,40.029L124.413,40.029L123.206,40.935L124.412,40.029ZM124.413,40.029L124.829,39.92L126.588,39.924L128.592,40.695L127.926,41.066L124.922,41.712L121.961,41.877ZM307.455,45.525L305.65,48.349L309.872,46.182L311.321,47.959L309.42,50.02L310.383,51.91L313.841,49.888L316.834,47.49L318.784,44.47L321.664,44.679L324.564,45.083L326.629,46.447L325.978,47.818L323.539,49.299L324.225,50.791L323.188,52.157L317.829,54.126L314.546,54.562L312.772,53.71L311.304,55.132L307.815,57.528L306.463,58.776L302.787,60.719L299.492,60.909L297.022,62.13L295.801,64.012L292.976,64.376L288.857,66.74L284.51,70.044L282.308,72.376L280.275,75.833L283.415,76.334L282.98,79.144L282.898,81.433L286.485,80.834L290.212,82.145L292.004,83.301L293.017,84.738L295.6,85.574L297.53,86.862L301.387,87.038L303.847,87.339L302.316,89.995L301.755,93.099L302.093,96.574L304.567,99.539L306.839,98.523L309.389,95.321L310.081,90.428L309.059,88.808L313.479,87.375L317.056,85.228L319.249,83.111L319.916,81.085L319.425,78.522L317.592,76.263L321.738,73.14L321.97,70.459L323.378,65.879L325.281,65.203L328.777,65.998L330.976,66.28L333.2,65.514L334.853,66.502L336.897,68.202L337.101,69.341L341.074,69.566L339.978,72.045L339.217,75.807L341.156,76.273L342.156,78.039L346.161,76.374L349.632,73.084L351.683,71.709L352.476,74.358L354.119,78.176L355.457,81.797L353.863,83.702L356.452,85.419L358.034,87.168L361.585,87.956L362.829,88.938L363.01,91.545L364.764,91.953L365.405,93.12L364.611,96.611L362.52,97.783L360.471,98.877L356.13,99.99L352.323,102.571L348.013,103.082L342.946,102.417L339.261,102.396L336.652,102.614L333.885,104.874L330.299,106.275L325.417,110.471L321.64,113.408L323.928,112.884L329.202,108.708L335.213,106.066L339.015,105.751L340.747,107.303L337.789,109.433L337.611,112.863L337.774,115.272L340.623,116.869L344.911,116.404L348.351,112.814L347.928,115.132L349.269,116.29L345.619,118.388L339.531,120.295L336.677,121.595L333.244,123.917L331.368,123.677L331.978,120.953L337.083,118.301L333.004,118.404L330.084,118.795L330.235,119.849L327.11,121.405L324.19,122.516L321.243,123.469L319.207,125.576L318.74,126.112L318.254,127.823L318.654,129.537L319.698,129.619L319.737,128.436L320.318,129.154L319.875,130.08L317.997,130.606L316.78,130.54L314.729,131.11L313.564,131.269L312.018,131.428L309.623,132.367L313.575,131.758L314.178,132.372L310.305,133.344L308.656,133.35L308.835,132.954L307.814,133.855L308.539,134.003L307.374,136.335L304.832,138.839L304.858,138.002L304.33,137.832L303.688,137.022L303.77,138.773L304.241,139.357L304.008,140.581L302.855,141.849L300.733,144.454L300.529,144.322L301.888,142.103L300.864,140.856L301.248,138.156L300.387,139.561L300.415,141.629L298.891,141.143L300.355,142.169L299.702,145.271L300.395,145.498L300.399,146.625L300.002,149.892L297.771,152.321L294.804,153.29L292.631,155.206L291.254,155.416L289.633,156.618L289.013,157.721L285.615,159.843L283.762,161.4L282.078,163.346L281.169,165.669L281.18,167.948L281.51,170.748L282.265,173.066L282.006,174.486L282.599,178.284L282.123,180.49L281.786,181.765L280.771,183.766L279.887,184.176L278.608,183.783L278.42,182.347L277.512,181.594L276.575,178.777L275.779,176.271L275.614,174.99L276.592,172.811L276.202,171.009L274.66,168.269L273.72,167.765L270.681,169.256L270.241,169.09L269.26,167.56L267.753,166.75L264.621,167.166L262.312,166.8L260.209,167.027L258.962,167.488L259.278,168.408L258.934,169.739L259.365,170.388L258.757,170.815L257.862,170.332L256.716,170.953L254.775,170.853L253.156,169.118L250.715,169.528L248.93,168.768L247.199,169.001L244.75,169.767L241.731,172.195L238.722,173.61L236.887,175.173L235.943,176.648L235.421,178.905L235.223,180.479L235.499,181.594L235.508,181.599L235.497,181.605L233.863,184.465L232.913,186.825L231.886,191.207L231.328,192.808L231.486,194.591L232.062,196.185L232.194,198.72L233.631,201.154L233.991,203.018L234.835,204.628L237.647,205.496L238.59,206.861L241.148,205.949L243.306,205.617L245.46,205.031L247.28,204.473L249.219,203.14L250.161,201.232L250.79,198.487L251.413,197.53L253.409,196.672L256.44,195.914L258.858,196.03L260.574,195.753L261.122,196.445L260.797,198.022L259.035,199.965L258.096,201.956L258.524,202.526L257.913,203.936L256.887,206.485L256.29,205.645L255.705,205.7L255.652,206.181L256.177,206.198L256.012,207.082L255.383,208.497L255.559,209L255.125,210.172L255.266,210.481L254.749,212.133L254.098,212.995L253.586,213.1L252.905,214.232L253.738,214.823L254.033,214.337L254.807,214.752L255.083,214.879L255.758,214.304L256.553,214.26L256.783,214.525L257.231,214.365L258.489,214.658L259.78,214.569L260.72,214.21L261.08,213.846L261.951,214.017L262.587,214.238L263.326,214.161L263.907,213.879L265.128,214.332L265.56,214.404L266.345,215.011L267.069,215.74L268.028,216.243L268.668,217.137L268.396,217.452L268.184,218.181L268.358,219.373L267.611,220.488L267.188,221.796L266.969,223.236L267.046,224.075L266.992,225.542L266.533,225.862L266.158,227.258L266.281,228.118L265.653,228.951L265.708,229.828L266.101,230.362L266.679,232.132L267.677,233.444L268.897,234.833L269.833,236.002L269.731,236.691L270.842,236.839L271.119,236.575L271.849,237.374L273.234,237.143L274.482,236.316L276.215,235.66L277.231,234.69L278.762,234.877L278.642,235.197L280.197,235.313L281.414,235.875L282.266,236.85L283.276,237.754L284.713,237.853L286.946,235.583L288.115,235.236L288.207,234.161L288.892,231.404L290.591,229.894L292.356,229.833L292.623,229.155L294.799,229.425L297.102,227.782L298.249,227.054L299.707,225.482L300.677,225.68L301.351,226.541L300.733,227.638L300.601,228.405L298.936,228.785L299.756,230.263L299.621,231.967L298.271,233.858L299.189,236.443L300.41,236.233L301.162,233.88L300.361,232.733L300.37,230.269L303.936,228.94L303.654,227.407L304.699,226.381L305.553,228.67L307.512,228.719L309.211,230.539L309.259,231.614L311.764,231.647L314.774,231.311L316.295,232.766L318.419,233.169L320.034,232.154L320.119,231.333L323.593,231.14L326.948,231.09L324.521,232.055L325.399,233.593L327.624,233.836L329.665,235.44L330.005,238.046L331.46,237.975L332.529,238.741L334.328,239.936L335.978,242.057L336.003,243.732L337.061,243.809L338.518,245.401L339.588,246.53L342.935,247.185L343.254,246.596L345.534,246.359L348.523,247.235L349.474,247.593L351.518,248.364L354.433,251.112L354.874,252.444L355.837,252.29L356.506,254.091L358.011,259.778L359.515,260.312L359.573,262.558L357.461,265.239L358.331,266.219L363.301,266.725L363.412,269.99L365.54,267.854L369.076,269.021L373.761,271.008L375.139,272.913L374.699,274.713L377.959,273.711L383.438,275.434L387.636,275.308L391.822,278L395.459,281.645L397.636,282.581L400.034,282.713L401.07,283.738L402.091,287.88L402.594,289.852L401.607,295.235L400.232,297.357L396.431,301.888L394.779,305.572L392.818,308.402L392.128,308.463L391.446,310.864L391.929,316.975L391.42,322.002L391.241,324.158L390.438,325.446L390.217,329.814L387.701,334.08L387.477,337.457L385.359,338.874L384.87,340.84L381.888,340.829L377.681,342.086L375.885,343.543L372.909,344.502L369.94,347.106L367.96,350.354L367.817,352.799L368.462,354.606L368.334,357.917L367.906,359.519L366.225,361.322L363.971,367.088L361.968,369.683L360.363,371.218L359.596,374.332L358.124,376.199L357.288,378.259L354.594,380.075L352.533,379.422L351.151,379.77L348.474,378.37L346.688,378.475L344.767,376.664L344.875,378.37L348.722,381.17L348.756,383.427L350.648,384.847L350.802,386.444L349.059,390.622L345.528,392.37L340.439,393.048L337.51,392.723L338.474,394.661L338.468,397.092L339.304,398.73L338.007,399.872L335.472,400.322L332.715,399.136L331.909,399.987L333.039,403.205L335.012,404.179L336.174,403.161L337.332,404.841L335.223,405.841L333.671,407.845L334.129,411.087L333.979,412.805L331.594,412.815L330.057,414.454L330.004,416.853L333.147,419.192L335.718,419.834L335.677,422.691L333.271,424.478L332.805,428.177L330.95,429.423L330.426,430.891L332.286,434.143L334.511,435.947L333.435,435.789L331.268,435.768L330.36,436.531L328.572,437.651L329.219,440.542L328.224,440.615L325.143,439.612L321.582,437.451L317.906,435.673L316.419,433.699L316.452,431.867L314.473,429.78L312.29,424.403L312.338,421.353L314.182,418.89L310.074,417.962L311.585,415.137L310.834,409.802L313.993,410.934L313.437,404.255L311.483,403.396L311.808,407.43L310.069,406.977L309.579,402.356L308.867,396.345L309.49,394.122L307.963,390.948L306.864,387.273L307.945,387.168L308.358,381.895L309.071,376.664L309.219,371.784L307.666,366.878L307.975,364.177L306.932,360.129L307.85,356.131L307.348,349.794L307.248,342.995L307.16,335.68L306.332,330.329L305.254,325.728L302.278,323.848L301.902,322.511L296.075,319.234L290.754,315.666L288.427,313.651L287.038,310.957L287.42,310.019L284.71,305.743L281.53,299.733L278.506,293.246L277.278,291.763L276.285,289.367L274.01,287.241L271.955,285.924L272.809,284.47L271.349,281.37L272.154,279.09L274.34,277.036L275.791,274.603L275.161,273.183L274.113,274.697L272.41,273.271L272.964,272.351L272.46,269.401L273.439,268.911L273.957,266.885L275.02,264.787L274.823,263.461L276.375,262.767L278.308,261.468L277.943,260.461L278.988,260.218L278.887,258.589L279.563,257.411L280.963,257.19L282.185,255.148L283.295,253.441L282.283,252.665L282.86,250.776L282.327,247.802L282.954,246.949L282.616,244.195L281.56,242.459L280.664,241.523L280.154,239.765L280.885,238.895L280.191,238.674L279.724,237.6L278.383,236.691L277.141,236.9L276.513,238.03L275.338,238.851L274.717,238.961L274.409,239.639L275.652,241.407L274.875,241.826L274.449,242.305L273.128,242.47L272.738,240.526L272.347,241.082L271.428,240.889L270.931,239.578L269.792,239.363L269.086,238.983L267.885,238.989L267.766,239.694L267.47,239.203L265.986,238.482L265.461,237.798L265.817,237.231L265.749,236.514L265.02,235.732L263.962,235.092L263.032,234.673L262.903,233.72L262.207,233.141L262.325,234.089L261.719,234.866L261.134,233.962L260.259,233.643L259.922,232.981L260.012,231.994L260.449,230.963L259.698,230.506L260.39,229.877L259.504,228.852L258.302,227.539L257.78,226.436L256.692,225.415L255.417,223.942L255.775,223.435L256.192,223.926L256.424,223.7L256.036,222.679L255.22,222.392L254.836,223.164L253.224,223.115L252.25,222.8L251.158,222.155L249.632,221.95L248.908,221.25L247.541,220.681L245.802,220.62L244.595,219.975L243.244,218.628L240.497,215.116L239.182,214.056L237.027,213.205L235.437,213.443L233.055,214.674L231.615,214.995L229.761,214.133L227.759,213.514L225.355,212.017L223.338,211.559L220.411,210.039L218.309,208.481L217.739,207.607L216.222,207.414L213.549,206.38L212.626,204.887L209.951,203.035L208.916,200.972L208.537,199.378L209.516,199.063L209.395,198.128L210.182,197.281L210.398,196.152L209.752,194.679L209.753,193.378L209.146,191.728L207.401,188.476L205.191,185.917L204.316,183.877L202.284,182.541L201.971,181.738L202.861,179.714L201.654,178.955L200.443,177.358L200.347,175.073L198.963,174.807L197.836,173.083L197,171.486L197.161,170.465L196.406,167.992L196.17,165.486L196.589,164.227L195.04,162.924L194.1,163.069L192.843,162.165L192.013,163.495L191.983,165.07L191.521,167.532L192.054,168.879L193.422,171.136L193.658,171.907L194.003,172.14L194.059,173.266L194.548,173.221L194.536,175.334L195.15,176.166L195.429,177.33L196.715,178.994L196.879,182.043L197.358,183.478L197.762,185.013L197.524,186.737L198.818,186.847L199.598,188.332L200.274,189.795L200.092,190.382L198.688,191.584L198.208,191.567L197.893,189.579L196.502,187.712L194.886,186.127L193.678,185.296L194.322,182.902L194.334,181.128L193.288,180.113L191.783,178.65L191.315,179.071L190.846,178.217L189.378,177.424L188.274,175.523L188.534,175.279L189.607,175.462L190.936,174.236L191.431,172.761L189.998,170.421L188.672,169.517L188.275,167.471L187.917,165.32L187.473,162.703L187.317,159.76L187.42,158.086L186.321,156.203L185.21,155.809L185.242,154.874L183.808,154.707L183.158,153.827L180.809,153.5L180.328,152.975L180.648,151.181L179.299,147.896L178.872,143.361L179.269,142.605L178.544,141.529L177.65,138.801L178.422,136.147L177.814,134.371L179.576,131.686L180.75,128.907L181.087,126.429L183.547,123.388L187.057,117.558L188.831,113.273L189.502,110.546L189.591,109.073L190.228,108.456L193.241,109.53L192.966,112.534L194.023,111.693L195.025,109.084L195.609,106.489L195.273,106.484L192.259,103.381L191.29,102.023L187.623,100.722L187.958,97.952L189.504,96.042L187.24,94.716L188.446,92.22L187.032,89.98L188.055,88.398L187.537,87.241L186.117,86.267L187.34,83.61L186.091,81.156L186.958,78.309L184.862,78.115L181.216,78.039L179.154,77.175L176.843,74.076L175.095,73.512L171.947,72.451L168.545,72.703L165.193,71.344L163.574,70.084L160.476,70.708L159.147,72.768L157.703,72.959L154.497,73.577L151.581,74.58L148.465,75.216L149.682,73.462L153.327,70.554L156.577,69.645L156.622,68.908L152.218,70.549L148.864,72.522L143.645,74.635L144.051,76.086L139.968,78.237L136.354,79.495L133.204,80.42L131.462,81.756L126.427,83.322L124.458,84.753L120.571,86.055L119.135,85.822L116.186,86.676L112.876,87.718L110.016,88.741L105.155,89.62L105.226,89.105L109.076,87.671L112.216,86.728L116.202,85.053L119.442,84.712L121.696,83.46L126.548,81.648L127.607,81.039L130.275,79.975L132.705,77.693L135.478,75.924L131.981,76.831L131.697,76.314L129.451,77.404L129.323,75.883L127.711,76.957L128.211,75.469L124.782,76.663L123.359,76.663L124.821,74.883L126.268,73.789L125.788,72.733L122.248,73.301L121.647,71.91L120.774,71.199L122.417,69.531L121.918,68.277L124.51,66.591L128.014,64.962L130.349,63.472L132.386,63.261L133.457,63.723L136.697,62.326L138.062,62.575L140.684,61.68L141.617,60.364L140.91,59.849L143.699,58.742L142.307,58.776L139.301,59.397L137.955,60.033L136.871,59.397L133.392,59.722L130.876,59.033L131.19,57.881L130.219,56.227L134.615,55.041L141.025,53.658L142.817,53.658L140.975,55.069L145.713,54.964L145.839,53.214L144.344,52.138L144.369,50.739L143.642,49.549L141.703,48.668L144.582,47.219L148.48,47.13L152.623,45.869L154.676,44.535L158.357,43.235L160.78,42.922L166.168,41.717L167.89,41.9L172.779,40.458L175.298,41.025L175.434,42.245L176.953,41.721L180.319,41.882L179.503,42.507L182.215,42.973L184.658,42.701L188.177,43.559L191.967,43.818L193.224,44.174L196.503,43.73L198.87,44.549L200.787,44.934L204.091,45.595L206.158,46.919L208.134,47.177L211.115,46.023L214.508,45.167L217.349,45.502L221.661,44.299L225.769,43.614L226.171,44.749L228.339,44.109L229.999,42.825L231.187,43.116L232.543,45.571L237.023,43.711L235.467,45.79L238.47,45.343L239.976,44.54L242.41,44.698L244.663,45.851L248.804,46.863L251.368,47.331L253.606,47.153L255.374,48.56L251.251,49.94L254.683,50.54L260.77,50.209L262.972,49.723L264.021,51.398L267.421,49.983L266.111,48.8L268.21,47.851L270.912,47.724L272.837,47.448L274.076,48.109L275.139,49.619L277.701,49.398L280.632,50.654L284.292,50.209L287.395,50.276L288.323,48.546L290.561,48.062L293.261,49.002L291.503,51.644L294.342,49.417L296.022,49.492L298.83,46.704L297.684,45.009L295.973,43.901L298.248,40.897L302.111,38.942L304.546,39.373L305.831,40.563L306.632,43.623L303.864,44.967ZM265.487,35.746L263.363,36.989L268.648,36.185L270.368,37.525L273.848,36.167L275,37.039L274.544,39.664L276.488,38.556L277.274,35.827L279.399,35.442L281.091,35.863L282.522,36.935L281.763,39.537L280.937,41.442L283.445,42.788L286.313,44.077L285.206,45.283L281.555,45.506L282.153,46.564L280.701,47.579L277.142,47.144L274.021,46.396L271.422,46.564L266.692,47.504L259.965,47.987L256.927,48.179L256.802,46.873L254.498,46.121L252.358,46.429L251.54,44.253L253.191,43.966L256.845,43.499L259.727,43.619L262.867,43.143L259.316,42.507L254.632,42.724L251.691,42.668L251.446,41.671L257.239,40.586L253.981,40.627L250.96,39.915L254.498,37.905L256.888,36.845L263.843,35.237ZM285.985,34.956L282.763,36.702L281.072,34.853L282.081,34.484L284.907,34.377ZM343.157,35.796L342.912,36.526L340.762,36.45L338.581,36.392L336.108,36.751L335.613,36.589L334.219,35.188L334.908,34.24L335.996,34.066L340.497,34.346ZM322.258,35.648L322.785,37.305L326.087,35.165L331.977,34.089L333.772,36.818L332.39,38.565L336.963,37.787L339.551,36.728L343.347,38.076L345.49,39.355L345.112,40.531L349.315,39.92L350.59,41.639L355.112,42.714L356.408,43.813L357.184,46.382L352.647,47.668L356.852,49.483L359.998,50.096L361.994,52.671L365.34,52.857L363.835,54.835L358.604,58.142L356.4,56.92L354.137,54.193L351.151,54.547L350.142,56.169L351.725,57.828L354.163,59.145L354.752,59.907L355.028,62.756L353.403,64.844L350.887,64.057L346.246,61.739L348.35,64.234L349.968,65.993L349.919,67.012L344.265,65.845L340.16,64.155L338.068,62.747L339.222,61.93L336.583,60.447L334.005,59.057L333.644,59.887L326.988,60.345L325.603,59.358L328.132,57.253L332.302,57.205L337.014,56.838L336.781,55.823L338.233,54.413L342.41,51.668L342.425,50.432L342.075,49.473L339.478,48.128L335.637,47.186L337.383,46.485L336.061,44.777L334.279,44.619L333.134,43.688L331.538,44.498L327.496,44.851L320.146,44.239L316.168,43.434L313.011,43.023L311.877,42.07L314.875,40.833L311.913,40.823L313.084,38.099L316.299,35.724L319.154,34.649L324.909,33.947ZM295.348,33.845L297.348,34.395L301.252,34.062L301.198,34.827L298.326,36.091L300.59,37.232L298.462,39.642L294.287,40.686L292.437,40.458L291.755,39.432L288.178,37.368L288.882,36.517L292.834,36.845L291.918,35.116ZM794.712,35.505L791.622,35.523L787.096,35.228L786.584,35.09L787.374,34.049L789.662,33.809L793.688,34.813ZM307.899,36.67L304.26,38.665L301.962,38.565L302.38,36.226L303.389,34.911L305.296,33.796L307.857,33.084L312.03,33.172L315.452,33.809L310.721,36.154ZM248.37,40.344L241.653,41.689L241.621,40.503L238.129,39.082L239.652,38.208L243.377,36.006L246.834,34.275L246.424,32.674L253.686,32.265L256.06,32.806L261.107,32.951L262.38,33.707L263.561,34.813L260.384,35.478L253.645,37.341L249.382,39.214ZM803.459,30.624L802.385,31.646L798.874,31.414L793.902,30.398L793.365,29.566L797.58,29.951ZM311.325,30.894L309.46,31.896L306.674,31.703L304.756,31.025L306.752,29.869L310.182,29.182L311.224,30.081ZM790.612,29.397L791.314,31.305L783.798,31.235L781.138,31.843L775.248,30.168L774.297,28.416L776.36,27.94L781.755,28.052ZM305.181,26.478L305.7,27.637L304.679,28.936L302.203,30.842L298.666,31.104L296.842,30.694L298.136,29.199L294.686,29.397L296.273,27.437L298.344,27.514L302.087,26.66L304.741,26.804ZM284.742,27.778L284.691,28.678L286.855,28.253L288.842,28.364L288.081,29.609L285.784,30.829L278.608,31.226L272.492,32.348L269.349,32.41L269.874,31.563L275.117,30.424L265.736,30.729L263.364,30.268L268.553,27.782L271.133,27.08L275.888,27.928L278.004,29.432L281.324,29.626L280.746,27.203L283.445,26.292L285.204,26.579ZM620.961,42.181L619.819,42.42L612.81,42.066L611.779,40.865L607.714,40.143L606.855,38.688L608.752,38.117L608.096,36.661L611.234,34.413L609.222,34.089L613.086,31.804L612.007,30.633L615.856,29.281L621.614,27.65L627.972,27.182L630.822,26.25L634.476,25.929L636.446,26.914L635.577,27.697L629.227,28.953L623.753,30.172L618.683,32.63L616.811,35.188L614.688,37.738L616.035,39.965ZM313.525,25.534L315.041,26.334L318.937,26.33L319.989,27.152L318.786,28.099L320.633,28.674L321.45,29.276L324.063,29.389L326.834,29.605L330.411,29.052L334.64,28.833L337.76,29.013L339.258,29.977L339.006,31.038L337.292,31.725L333.908,32.282L331.53,31.966L325.444,32.366L321.249,32.414L318.204,32.093L313.449,31.261L313.835,29.847L314.579,28.583L313.465,27.479L309.615,27.173L307.977,26.397L309.598,25.379ZM272.576,24.187L270.304,26.085L267.887,26.952L265.912,27.075L261.105,28.15L257.515,28.54L255.383,27.992L260.755,26.115L266.534,24.511L269.5,24.548ZM316.072,24.494L315.122,24.565L311.584,24.407L311.673,23.723L315.571,23.761L316.549,24.212ZM284.474,24.058L280.097,24.765L278.024,23.971L280.42,23.196L283.527,22.95L285.879,23.328ZM548.271,23.678L544.121,24.677L540.552,24.108L541.771,23.48L540.446,22.705L544.361,22.22L545.331,23.127ZM287.786,21.871L284.921,22.338L281.706,22.334L282.114,21.993L284.886,21.278L285.801,21.387ZM313.341,23.184L309.999,23.686L308.935,23.118L308.954,22.216L309.76,21.226L312.167,21.322L313.142,21.479L314.674,22.31ZM305.723,22.534L305.519,23.546L302.596,23.275L300.162,22.489L295.923,22.403L298.52,21.689L296.786,21.117L297.607,20.211L301.038,20.533L305.362,21.395ZM704.059,22.578L693.994,23.513L694.442,20.37L695.751,20.108L697.346,20.259L703.633,21.604ZM534.837,19.281L541.511,21.025L536.839,21.964L536.073,23.744L534.44,24.203L533.827,26.254L531.458,26.351L527.015,24.835L528.678,23.963L525.664,23.262L521.648,21.234L519.951,19.394L525.041,18.567L526.199,19.375L528.917,19.343L529.508,18.556L532.286,18.478ZM548.128,17.666L552.08,18.463L549.604,19.705L544.118,19.982L538.388,19.595L537.909,18.956L535.171,18.913L532.888,17.865L538.592,17.236L541.462,17.777L543.203,17.103ZM596.535,17.35L594.166,17.647L592.558,17.819L592.493,18.192L590.476,18.571L588.141,18.03L588.848,17.323L584.614,17.255L588.079,16.85L590.921,16.82L591.643,17.426L592.423,16.887L593.987,16.523L597.062,17.008ZM692.74,21.206L688.818,21.5L682.796,20.817L678.739,19.918L675.645,18.265L672.603,17.815L675.885,16.287L679.372,15.793L684.283,16.903L691.052,19.101ZM333.805,19.379L335.433,20.128L332.181,20.829L327.052,22.627L323.463,22.799L319.715,22.489L318.517,21.516L319.355,20.653L321.472,20.029L317.951,20.045L316.613,19.273L316.487,18.231L318.877,17.228L320.926,16.549L323.027,16.392L322.767,15.889L327.241,15.779L328.37,16.955L331.053,17.437L333.727,17.865ZM375.454,11.922L380.158,12.08L383.836,12.333L386.689,12.883L386.146,13.428L380.884,14.338L376.04,14.766L373.954,15.249L378.02,15.239L372.543,16.564L368.982,17.194L364.296,19.054L360.066,19.438L358.485,19.91L352.484,20.164L354.902,20.458L353.251,20.877L353.967,22.054L351.521,22.877L348.011,23.563L346.385,24.523L343.113,25.257L342.986,25.82L346.426,25.723L346.048,26.33L339.706,27.838L335.007,27.143L328.889,27.531L326.158,27.228L322.51,27.097L323.211,25.895L327.301,25.337L327.772,23.563L329.106,23.394L333.48,24.448L332.07,22.885L329.309,22.423L331.671,21.495L335.574,20.929L336.831,20.108L334.946,19.198L335.243,18.019L340.329,18.119L341.605,18.366L345.316,17.536L341.309,17.277L334.563,17.422L332.002,16.662L331.381,15.771L329.91,15.136L330.345,14.406L333.567,14.006L335.8,13.939L339.814,13.6L343.422,12.835L345.568,12.939L346.89,13.516L349.55,12.414L352.34,12.093L355.859,11.875L361.505,11.795L362.236,12.006L367.852,11.672L371.644,11.799ZM451.061,11.117L461.868,12.684L458.244,13.47L451.176,13.562L441.172,13.766L441.948,14.138L448.582,13.907L453.903,14.636L457.701,13.989L459.021,14.748L456.624,16.008L461.592,15.198L470.795,14.37L476.282,14.781L477.186,15.705L469.271,17.277L468.107,17.796L461.969,18.188L466.34,18.296L463.788,19.982L461.938,21.512L461.495,24.203L463.57,25.816L460.471,25.917L457.073,26.706L460.5,28.039L460.608,30.203L458.418,30.442L460.675,32.665L456.134,32.85L458.315,33.916L457.496,34.84L454.544,35.246L451.679,35.255L453.939,37.048L453.768,38.235L449.873,37.133L448.676,37.846L451.352,38.516L453.8,40.157L454.241,42.337L450.402,42.862L448.964,41.813L446.657,40.257L447.031,42.093L444.32,43.526L449.866,43.642L452.756,43.79L446.659,46.182L440.443,48.363L433.956,49.322L431.582,49.332L429.107,50.408L425.417,53.372L420.25,55.352L418.705,55.468L415.605,56.164L412.272,56.829L409.916,58.592L409.356,60.607L407.729,62.502L403.453,64.819L403.765,67.101L402.113,69.526L400.199,72.411L396.913,72.592L394.179,70.179L389.605,70.164L387.869,68.55L387.217,65.692L384.471,62.081L383.959,60.203L384.524,57.634L382.399,55.007L383.929,52.928L382.832,51.939L386.168,48.673L389.772,47.64L391.034,46.485L392.255,44.341L389.47,45.311L388.162,45.72L386.106,46.112L383.839,45.213L384.423,43.356L385.822,41.91L387.789,41.868L391.806,42.59L388.852,40.869L387.344,39.947L385.117,40.325L383.651,39.655L387.004,37.165L386.167,36.176L385.335,34.351L384.137,31.589L382.051,30.585L382.595,29.514L377.994,28.026L373.865,27.842L368.484,27.945L363.522,28.133L361.688,27.33L359.235,25.757L364.892,24.977L368.924,24.848L360.946,24.207L357.21,23.213L358.139,22.277L366.261,21.125L374.081,19.993L375.395,19.151L370.85,18.323L373.181,17.422L380.863,15.871L383.758,15.638L383.735,14.672L388.565,14.113L394.496,13.783L400.172,13.766L401.73,14.42L407.412,13.271L411.299,14.049L413.793,14.213L417.244,14.904L413.516,13.766L414.33,12.883L421.228,11.689L427.544,11.779L430.283,11.062L436.767,10.877Z"/>
  </g>
</svg>
